PathFileType	4	(X/Y/Z)	/Users/niels/Desktop/University/Third Semester/Perception and Action/Exam/Gymnastics Motion Tracking/Code for Gym Tracking/Analyzed Data/Webcam_Backflip/id1_2_trajectory_Sports2D/id1_2_trajectory_Sports2D_px_person00.trc
DataRate	CameraRate	NumFrames	NumMarkers	Units	OrigDataRate	OrigDataStartFrame	OrigNumFrames
29.714285714285715	29.714285714285715	9	22	m	29.714285714285715	0	105
Frame#	Time	Hip			RHip			RKnee			RAnkle			RBigToe			RSmallToe			RHeel			LHip			LKnee			LAnkle			LBigToe			LSmallToe			LHeel			Neck			Head			Nose			RShoulder			RElbow			RWrist			LShoulder			LElbow			LWrist		
		X1	Y1	Z1	X2	Y2	Z2	X3	Y3	Z3	X4	Y4	Z4	X5	Y5	Z5	X6	Y6	Z6	X7	Y7	Z7	X8	Y8	Z8	X9	Y9	Z9	X10	Y10	Z10	X11	Y11	Z11	X12	Y12	Z12	X13	Y13	Z13	X14	Y14	Z14	X15	Y15	Z15	X16	Y16	Z16	X17	Y17	Z17	X18	Y18	Z18	X19	Y19	Z19	X20	Y20	Z20	X21	Y21	Z21	X22	Y22	Z22
0	0.0	0.9284535651944302	-0.43823310368472457	0.0	0.930053369372134	-0.44782128240485614	0.0	1.0292803214080812	-0.3582798636154536	0.0	1.0965550070431915	-0.45752258654900557	0.0	1.163763709823231	-0.4287063003272517	0.0	1.1573590587729552	-0.4446965526502241	0.0	1.1029681775175846	-0.4767418348389911	0.0	0.9300619485314371	-0.43024489273231925	0.0	1.0277244039810038	-0.3519126139187187	0.0	1.1014580917025258	-0.4367858783194386	0.0	1.1622685279630507	-0.41907374803727887	0.0	1.157466778414585	-0.41428116103576446	0.0	1.1062746601890472	-0.46237330899975143	0.0	0.7989651985025145	-0.34521598092601247	0.0	0.7543007551130094	-0.2875812448520929	0.0	0.8006865848273697	-0.29561823059543163	0.0	0.80376664650526	-0.35643878994247125	0.0	0.8742358065927048	-0.31812301650906455	0.0	0.8711804131344387	-0.24928025816259983	0.0	0.8069428208600902	-0.35001154784425964	0.0	0.867803447431511	-0.31322726292071984	0.0	0.8663363504190648	-0.257288042455967	0.0
1	0.03365384615384615	0.937707915252424	-0.42187123963864187	0.0	0.9396420689865359	-0.4272492287448574	0.0	0.9898511048338036	-0.32653660398068046	0.0	1.0696475899261815	-0.3709373247944839	0.0	1.110409394764224	-0.3289646149545656	0.0	1.1107849794439526	-0.34144053929481566	0.0	1.080594701183152	-0.3867060568370214	0.0	0.9361476094426059	-0.4152272744191679	0.0	0.9867793729333939	-0.3244792591007138	0.0	1.0704436714560481	-0.3592140791936782	0.0	1.1103742440587983	-0.3256167175899101	0.0	1.109188973910617	-0.3234136451735807	0.0	1.082357724767628	-0.3775254259003229	0.0	0.7974124064251421	-0.3541242022987193	0.0	0.7441263558364863	-0.30321986868677886	0.0	0.7928848980837986	-0.306126758095936	0.0	0.8060646787067641	-0.3612225558059113	0.0	0.8804234027979845	-0.318233310969052	0.0	0.8856258948291418	-0.24865572217198104	0.0	0.8067343303871255	-0.3599743981111816	0.0	0.8726595817848899	-0.3179152245278765	0.0	0.876932648729969	-0.2579162850309023	0.0
2	0.0673076923076923	0.9455561199471325	-0.403403443212247	0.0	0.9477918048284073	-0.4050256197656556	0.0	0.951023670748937	-0.29958210772457083	0.0	1.0354700668292682	-0.2934772943500472	0.0	1.0509368162430581	-0.24315775326388883	0.0	1.057140702269706	-0.2519606896435361	0.0	1.0489428468132294	-0.3050858324639041	0.0	0.941219195894551	-0.3981020290269724	0.0	0.947030403848588	-0.30097903328265324	0.0	1.0330005751447011	-0.2891603535015018	0.0	1.0518686307080998	-0.24403151260324615	0.0	1.0541326667654842	-0.24362512489129146	0.0	1.0497156967521508	-0.2997897018716533	0.0	0.7977748885522092	-0.36460107490433136	0.0	0.7368380673603799	-0.32223437247321646	0.0	0.7860894323751136	-0.3190960814859908	0.0	0.8099861913343191	-0.3675591103143725	0.0	0.8852258737303753	-0.3178547220760079	0.0	0.8940718239185965	-0.24900239437918736	0.0	0.8085271464904707	-0.37073328460461025	0.0	0.8760169351543436	-0.32198624694703426	0.0	0.88220497586641	-0.2599404100269152	0.0
3	0.10096153846153846	0.9505507702292286	-0.38198349591733566	0.0	0.95290908452382	-0.3806392927273586	0.0	0.9135505127436222	-0.28058185408418274	0.0	0.9900545237361672	-0.23301463014015736	0.0	0.9825502119076833	-0.18208015843645717	0.0	0.9929713946140238	-0.1870854958940324	0.0	1.0030554058537116	-0.23955725619326457	0.0	0.9439196035889647	-0.3780143395798394	0.0	0.9096836621232621	-0.2842076778257977	0.0	0.9854221409177965	-0.2335078649234891	0.0	0.9835774051846902	-0.18453297115254433	0.0	0.9889148338744341	-0.18488033604466578	0.0	1.0035524666048248	-0.23595562298097342	0.0	0.8018984276801934	-0.37745139500587194	0.0	0.7351068648167333	-0.34678853423046835	0.0	0.7816865032540307	-0.33627766942037274	0.0	0.8169829997033852	-0.3762873924878153	0.0	0.8873602014634916	-0.31702119628245856	0.0	0.8923577200390657	-0.2515085071394207	0.0	0.8140824234209295	-0.3826018344367254	0.0	0.8767314228154303	-0.3250119542802335	0.0	0.878573338449278	-0.26456936682221743	0.0
4	0.1346153846153846	0.9514086504460885	-0.35834171962833544	0.0	0.9534449744675132	-0.35506197725944916	0.0	0.8785249521944792	-0.2707668715207794	0.0	0.9342789047501773	-0.19455191138335204	0.0	0.9072591722886247	-0.15115426701538537	0.0	0.9199110617393357	-0.15242560085066828	0.0	0.9441316551957412	-0.1953647939830015	0.0	0.9428901446833263	-0.3556848550874152	0.0	0.8759064893141001	-0.2754153588540674	0.0	0.9282185676810389	-0.19705547214784763	0.0	0.9073881610880525	-0.15355396390775314	0.0	0.9151350810096053	-0.1538196903963987	0.0	0.9446783527384354	-0.19135379812045417	0.0	0.8111506420425175	-0.39246376249988546	0.0	0.7410306522447271	-0.3771052287066625	0.0	0.7812922958692411	-0.35833776976599696	0.0	0.8278416181075009	-0.38726653728348276	0.0	0.8859703947760598	-0.31657760741834534	0.0	0.8794650393061259	-0.2575130875733234	0.0	0.8245413405056112	-0.39528316548742143	0.0	0.8743903202313228	-0.32703071089809793	0.0	0.8655387984720901	-0.2726607708177406	0.0
5	0.16826923076923075	0.9472245237160978	-0.33453792038357816	0.0	0.9483154991692841	-0.33051055162978055	0.0	0.8471797896605923	-0.27043076430069113	0.0	0.8728445763550163	-0.1799643986126272	0.0	0.8310779579049177	-0.15082638742178323	0.0	0.8437542259819035	-0.14865137967498	0.0	0.8780170090962345	-0.17479678066006107	0.0	0.9373420140174422	-0.3331407519293049	0.0	0.8464852248551674	-0.27484689525989725	0.0	0.8655663611234482	-0.18204563853819547	0.0	0.829460419186235	-0.15289367543782095	0.0	0.8386886591430663	-0.15263989327987854	0.0	0.8782823819695702	-0.16933139029318103	0.0	0.826014105504334	-0.4084747027436298	0.0	0.7559106505957338	-0.41144330822543396	0.0	0.7864833204990503	-0.38470261619738966	0.0	0.8424965938465895	-0.3994874397986764	0.0	0.881288125122979	-0.31811521693848877	0.0	0.85821240063436	-0.26878165352433975	0.0	0.8401989456778385	-0.40790736258988514	0.0	0.8697597923079773	-0.32911070839147416	0.0	0.8463827255999481	-0.2849924273557201	0.0
6	0.20192307692307693	0.9377748573791809	-0.31347605307544635	0.0	0.9374667001256263	-0.30986249800491333	0.0	0.8204259372219759	-0.2793664527868319	0.0	0.8118199544127622	-0.18841186867724863	0.0	0.7614993841319062	-0.17788039226697408	0.0	0.772051557933408	-0.17274250235889713	0.0	0.8119040891918711	-0.1776226154798342	0.0	0.927525819334481	-0.31317816247427227	0.0	0.8216980575146486	-0.28220972540544154	0.0	0.8034262956150686	-0.18848288588717657	0.0	0.7578187822628736	-0.18001336002254267	0.0	0.7675407674031929	-0.17923097955364622	0.0	0.8112399189472499	-0.17083690106268679	0.0	0.8458071748401674	-0.42367984422934546	0.0	0.7799122103206803	-0.4465897969863835	0.0	0.7983206392989651	-0.41351616625975923	0.0	0.8602122780928908	-0.4113874559908514	0.0	0.8749802705178218	-0.3233359108917206	0.0	0.8345225356202529	-0.287449707982485	0.0	0.8603644859061963	-0.4192059907042683	0.0	0.8648273060221717	-0.3332890733239253	0.0	0.8271754844020891	-0.3026862778283951	0.0
7	0.23557692307692307	0.9237093412012934	-0.29816379508002006	0.0	0.9220092715045405	-0.29582880611397244	0.0	0.7986890733159866	-0.29661539000581943	0.0	0.7566837331783085	-0.21696601786832018	0.0	0.7048849049731136	-0.22670749963206	0.0	0.7116171376750953	-0.21923210121882306	0.0	0.7517944700308439	-0.20183197249345236	0.0	0.914548362507197	-0.29866412737190073	0.0	0.8015570102798719	-0.29702050516007894	0.0	0.7476647109671298	-0.2146239286699124	0.0	0.6999150230096072	-0.22927600088051026	0.0	0.7092213747988201	-0.22814244560619695	0.0	0.7497816677968915	-0.19445134032067446	0.0	0.8687445547647459	-0.4362120287464168	0.0	0.8117974844180649	-0.47874745060696566	0.0	0.8168061451964527	-0.44191180122503965	0.0	0.8798213418155495	-0.421314142224986	0.0	0.8696942695438185	-0.33308530994513885	0.0	0.815617670065871	-0.31496144727335507	0.0	0.883337151688446	-0.4278769270915455	0.0	0.8621496094231772	-0.3413955593020615	0.0	0.8143157699715264	-0.32702866428231536	0.0
8	0.2692307692307692	0.9063882243896434	-0.2908805818998324	0.0	0.903666265296864	-0.2901534871865027	0.0	0.7819986922942372	-0.3207396777187008	0.0	0.7116463362312724	-0.2616147355779869	0.0	0.6650952118565906	-0.2906723886766703	0.0	0.6670542202434582	-0.28161029069793336	0.0	0.7020122760605687	-0.24436330786547467	0.0	0.8995494037428214	-0.29183590624409	0.0	0.7858701824460192	-0.3188530575801347	0.0	0.7028904753841557	-0.2574170682085962	0.0	0.6608103081249133	-0.29373038065526036	0.0	0.668879016967753	-0.2922146415440591	0.0	0.6986920208448834	-0.23714626676130687	0.0	0.8923420546975116	-0.44471443687079426	0.0	0.8488002693587583	-0.5046120436312846	0.0	0.8405868322810857	-0.46670373141439664	0.0	0.8998107483628056	-0.4280844715868704	0.0	0.8679410138690191	-0.3466911043915661	0.0	0.8078342319761116	-0.35027668095661324	0.0	0.9066078204661646	-0.432980000891453	0.0	0.8636597433788549	-0.353665332071649	0.0	0.8120005847298543	-0.3577908287158052	0.0
